<svg width="238" height="130" viewBox="0 0 238 130" fill="none" xmlns="http://www.w3.org/2000/svg">
<path d="M7.46054 129.258C3.22154 129.258 -0.238584 125.818 0.0128997 121.587C1.54085 95.8799 10.7207 71.1493 26.4588 50.6189C43.7573 28.0532 68.0136 11.8208 95.4711 4.4359C122.929 -2.94901 152.055 -1.07439 178.339 9.76944C202.253 19.6352 222.6 36.4243 236.817 57.8963C239.157 61.4308 237.889 66.1421 234.222 68.2685C230.555 70.3949 225.879 69.1287 223.511 65.6131C211.008 47.054 193.276 32.5376 172.485 23.9599C149.322 14.4039 123.655 12.7519 99.4581 19.2598C75.2615 25.7677 53.8859 40.0723 38.6418 59.9581C24.9585 77.808 16.9008 99.2607 15.3943 121.588C15.109 125.817 11.6995 129.258 7.46054 129.258Z" fill="#1EA54E"/>
</svg>
