<svg width="177" height="130" viewBox="0 0 177 130" fill="none" xmlns="http://www.w3.org/2000/svg">
<path d="M7.47201 129.458C3.22646 129.458 -0.239014 126.013 0.0129197 121.775C1.12361 103.092 6.27478 84.8392 15.1466 68.2904C25.2313 49.4795 39.8105 33.4537 57.5864 21.6398C75.3623 9.82584 95.7835 2.59026 117.032 0.577128C135.725 -1.1939 154.548 1.12527 172.204 7.33634C176.209 8.74526 178.043 13.2744 176.399 17.1886C174.755 21.1029 170.255 22.9168 166.239 21.54C150.931 16.2919 134.651 14.3512 118.482 15.8831C99.7571 17.6571 81.7612 24.0334 66.0963 34.4443C50.4315 44.8552 37.5837 58.9777 28.6967 75.5547C21.0228 89.8689 16.5077 105.63 15.4181 121.776C15.1323 126.012 11.7175 129.458 7.47201 129.458Z" fill="#DB1F26"/>
</svg>
