<svg width="258" height="130" viewBox="0 0 258 130" fill="none" xmlns="http://www.w3.org/2000/svg">
<path d="M250.542 129.215C254.78 129.215 258.239 125.777 257.987 121.546C257.134 107.2 253.893 93.0775 248.379 79.7665C241.885 64.0894 232.367 49.8449 220.369 37.8461C208.37 25.8474 194.125 16.3295 178.448 9.83589C162.771 3.34224 145.969 -7.41727e-07 129 0C112.031 7.41727e-07 95.2287 3.34224 79.5516 9.8359C63.8745 16.3296 49.63 25.8474 37.6313 37.8462C25.6326 49.8449 16.1147 64.0894 9.62104 79.7665C4.10744 93.0775 0.86579 107.2 0.012885 121.546C-0.238595 125.777 3.22038 129.215 7.45796 129.215C11.6955 129.215 15.1039 125.776 15.3892 121.548C16.2213 109.218 19.0563 97.0878 23.7985 85.639C29.521 71.8237 37.9086 59.2709 48.4823 48.6971C59.056 38.1234 71.6089 29.7359 85.4241 24.0134C99.2394 18.2909 114.046 15.3456 129 15.3456C143.953 15.3456 158.761 18.2909 172.576 24.0134C186.391 29.7359 198.944 38.1234 209.518 48.6971C220.091 59.2709 228.479 71.8237 234.201 85.639C238.944 97.0878 241.779 109.218 242.611 121.548C242.896 125.776 246.304 129.215 250.542 129.215Z" fill="#F5F8FB"/>
</svg>
