<svg width="16" height="16" viewBox="0 0 16 16" fill="none" xmlns="http://www.w3.org/2000/svg">
<path d="M2.33333 6.66683C2.33333 4.15283 2.33333 2.8955 3.16333 2.11483C3.99333 1.33416 5.32867 1.3335 8 1.3335H8.51533C10.6887 1.3335 11.7767 1.3335 12.5313 1.8655C12.7473 2.0175 12.9393 2.19883 13.1013 2.40216C13.6667 3.11283 13.6667 4.1355 13.6667 6.18216V7.87883C13.6667 9.85416 13.6667 10.8422 13.354 11.6308C12.8513 12.8995 11.7887 13.8995 10.4407 14.3728C9.60267 14.6668 8.554 14.6668 6.454 14.6668C5.25533 14.6668 4.65533 14.6668 4.17667 14.4988C3.40667 14.2282 2.79933 13.6568 2.512 12.9322C2.33333 12.4815 2.33333 11.9168 2.33333 10.7882V6.66683Z" stroke="#7B9FC3" stroke-linecap="round" stroke-linejoin="round"/>
<path d="M13.6667 8.00033C13.6667 8.58964 13.4326 9.15481 13.0159 9.57152C12.5992 9.98822 12.034 10.2223 11.4447 10.2223C11.0007 10.2223 10.4773 10.145 10.046 10.2603C9.85761 10.311 9.68583 10.4103 9.54789 10.5482C9.40994 10.6862 9.31066 10.8579 9.26 11.0463C9.14467 11.4777 9.222 12.001 9.222 12.445C9.222 12.7368 9.16453 13.0257 9.05286 13.2953C8.94119 13.5649 8.77752 13.8099 8.57119 14.0162C8.36486 14.2225 8.11991 14.3862 7.85032 14.4979C7.58074 14.6095 7.2918 14.667 7 14.667M5.33333 4.66699H10M5.33333 7.33366H7.33333" stroke="#7B9FC3" stroke-linecap="round" stroke-linejoin="round"/>
</svg>
