<svg width="16" height="16" viewBox="0 0 16 16" fill="none" xmlns="http://www.w3.org/2000/svg">
<g clip-path="url(#clip0_344_237)">
<path d="M2.66667 9.99989V12.6666M8 5.99989V12.6666M14.6667 14.6666H1.33333M13.3333 8.66655V12.6666M3.73333 5.86655C3.62828 5.72648 3.49666 5.60847 3.34599 5.51925C3.19533 5.43004 3.02856 5.37138 2.85523 5.34662C2.68189 5.32186 2.50538 5.33148 2.33576 5.37494C2.16614 5.41839 2.00674 5.49483 1.86667 5.59989C1.72659 5.70494 1.60858 5.83656 1.51937 5.98723C1.43016 6.1379 1.3715 6.30466 1.34673 6.47799C1.29672 6.82806 1.38783 7.18366 1.6 7.46655C1.81217 7.74945 2.12804 7.93648 2.47811 7.98649C2.82817 8.0365 3.18377 7.94539 3.46667 7.73322C3.74956 7.52105 3.93659 7.20518 3.9866 6.85512C4.03661 6.50505 3.94551 6.14945 3.73333 5.86655ZM3.73333 5.86655L6.93333 3.46655M6.93333 3.46655C7.06964 3.64857 7.25023 3.79269 7.45794 3.88524C7.66565 3.97778 7.89357 4.01566 8.12005 3.99529C8.34653 3.97491 8.56403 3.89695 8.75189 3.76882C8.93974 3.64069 9.09171 3.46664 9.19333 3.26322M6.93333 3.46655C6.79104 3.27655 6.70206 3.052 6.67557 2.8161C6.64908 2.58021 6.68605 2.34151 6.78266 2.12468C6.87926 1.90785 7.03201 1.72074 7.22511 1.58268C7.41821 1.44462 7.64467 1.36062 7.8811 1.33935C8.11752 1.31808 8.35534 1.36031 8.56998 1.46168C8.78463 1.56306 8.96831 1.7199 9.10207 1.916C9.23583 2.11211 9.31482 2.34037 9.33086 2.57721C9.3469 2.81404 9.29943 3.05087 9.19333 3.26322M9.19333 3.26322L12.14 4.73655C12.0616 4.89318 12.0149 5.0637 12.0025 5.23839C11.99 5.41307 12.0121 5.5885 12.0674 5.75466C12.1792 6.09022 12.4197 6.36764 12.736 6.52589C13.0523 6.68413 13.4185 6.71024 13.7541 6.59847C14.0897 6.4867 14.3671 6.2462 14.5253 5.92989C14.6803 5.61404 14.7042 5.24974 14.5918 4.91637C14.4793 4.583 14.2397 4.30759 13.925 4.15014C13.6104 3.99269 13.2463 3.96598 12.9121 4.07583C12.5778 4.18567 12.3006 4.42316 12.1407 4.73655" stroke="#7B9FC3" stroke-linecap="round" stroke-linejoin="round"/>
</g>
<defs>
<clipPath id="clip0_344_237">
<rect width="16" height="16" fill="white"/>
</clipPath>
</defs>
</svg>
