<svg width="16" height="16" viewBox="0 0 16 16" fill="none" xmlns="http://www.w3.org/2000/svg">
<path d="M5.99996 14.0002C6.53063 14.4148 7.23196 14.6668 7.99996 14.6668C8.76796 14.6668 9.4693 14.4148 9.99996 14.0002M1.68663 9.59616C1.54463 10.4982 2.17863 11.1242 2.95463 11.4362C5.92996 12.6328 10.07 12.6328 13.0453 11.4362C13.8213 11.1242 14.4553 10.4982 14.3133 9.59616C14.2266 9.0415 13.7953 8.58016 13.476 8.1295C13.058 7.5315 13.0166 6.88016 13.016 6.18616C13.0166 3.50683 10.7713 1.3335 7.99996 1.3335C5.22863 1.3335 2.9833 3.50683 2.9833 6.18683C2.9833 6.88016 2.94196 7.53216 2.5233 8.1295C2.20463 8.58016 1.77396 9.0415 1.68663 9.59616Z" stroke="#8597A8" stroke-linecap="round" stroke-linejoin="round"/>
</svg>
