<svg width="16" height="16" viewBox="0 0 16 16" fill="none" xmlns="http://www.w3.org/2000/svg">
<path d="M12.6667 6.00016V5.21216C12.6667 4.0835 12.6667 3.51883 12.4987 3.06816C12.3651 2.70999 12.156 2.38473 11.8857 2.11442C11.6154 1.84411 11.2902 1.63508 10.932 1.5015C10.4813 1.3335 9.91667 1.3335 8.788 1.3335C6.81267 1.3335 5.82467 1.3335 5.036 1.6275C4.40898 1.86119 3.83955 2.22699 3.36634 2.70009C2.89312 3.1732 2.52718 3.74254 2.29333 4.3695C2 5.15816 2 6.14616 2 8.1215V9.81816C2 11.8648 2 12.8875 2.532 13.5982C2.68439 13.8017 2.86511 13.9824 3.06867 14.1348C3.77933 14.6668 4.802 14.6668 6.84867 14.6668H9.66667" stroke="#7B9FC3" stroke-linecap="round" stroke-linejoin="round"/>
<path d="M7.33333 9.5555H7.89333C8.33467 9.5555 8.55533 9.5555 8.732 9.67216C8.90933 9.78816 9.008 9.9975 9.20533 10.4155L10.2667 12.6668L11.7333 8.00016L12.7947 10.2515C12.992 10.6695 13.0907 10.8788 13.268 10.9948C13.4453 11.1108 13.6653 11.1115 14.1067 11.1115H14.6667M2 8.00016C2 7.41085 2.2341 6.84568 2.65081 6.42897C3.06751 6.01227 3.63269 5.77816 4.222 5.77816H4.96267C5.30733 5.77816 5.47933 5.77816 5.62067 5.74016C5.80914 5.68944 5.98097 5.59006 6.11892 5.45199C6.25687 5.31392 6.3561 5.14201 6.40667 4.9535C6.44467 4.81216 6.44467 4.64016 6.44467 4.2955V3.5555C6.44467 2.96619 6.67877 2.40101 7.09548 1.9843C7.51218 1.5676 8.07736 1.3335 8.66667 1.3335" stroke="#7B9FC3" stroke-linecap="round" stroke-linejoin="round"/>
</svg>
